# xmcd CD database file
# Copyright (C) 1993-1998 Ti Kan
#
# Track frame offsets:
#	182
#	20070
#	37495
#	64965
#
# Disc length: 1198 seconds
#
# Revision: 1
# Processed by: cddbd v1.4b41PL1 Copyright (c) Steve Scherf et al.
# Submitted via: CDValet v3.31 - Copyright (c) 1997 Greg Leichner
#
DISCID=3b04ac04
DTITLE=Gary Moore - Separate Ways Collectors Edition
DYEAR=1900
DGENRE=
TTITLE0=Separate Ways
TTITLE1=Only Fool In Town
TTITLE2=Further On Up The Road
TTITLE3=Caldonia
EXTD=
EXTT0=
EXTT1=
EXTT2=
EXTT3=
PLAYORDER=
